<svg xmlns="http://www.w3.org/2000/svg" width="125" height="57" fill="none"><path fill="#798aca" d="M14.517 29.817a3.368 3.368 0 0 0 3.363 3.364 3.368 3.368 0 0 0 3.364-3.364 3.367 3.367 0 0 0-3.364-3.364 3.367 3.367 0 0 0-3.363 3.364Zm10.323 0a3.368 3.368 0 0 0 3.365 3.364 3.367 3.367 0 0 0 3.362-3.364 3.366 3.366 0 0 0-3.362-3.364 3.368 3.368 0 0 0-3.365 3.364Zm10.323 0a3.368 3.368 0 0 0 3.364 3.364 3.368 3.368 0 0 0 3.362-3.364 3.367 3.367 0 0 0-3.362-3.364 3.367 3.367 0 0 0-3.364 3.364Z"/><path fill="#798aca" d="M56.932 51.545a14.062 14.062 0 0 0-.233-.322c-.688-.928-2.779-3.75-3.2-7.547a2.88 2.88 0 0 0-5.724.636c.17 1.519.531 3.025 1.084 4.512-2.02-.376-4.207-.65-6.184-.637-3.357.025-5.846.874-8.041 1.624-2.171.741-4.047 1.382-6.8 1.382-9.895 0-16.675-6.47-19.72-12.522C3.63 29.754 6.387 21.656 9.49 16.432 13.339 9.95 20.54 5.76 27.834 5.76c2.491 0 8.868.518 14.259 5.315a2.88 2.88 0 0 0 3.828-4.301C39.05.659 30.984 0 27.834 0c-4.665 0-9.326 1.292-13.477 3.736a27.885 27.885 0 0 0-9.818 9.755C2.018 17.736.53 22.126.117 26.54-.356 31.6.604 36.552 2.97 41.258a29.158 29.158 0 0 0 9.55 10.94 27.003 27.003 0 0 0 15.313 4.753c3.709 0 6.34-.898 8.66-1.69 2.039-.696 3.8-1.298 6.222-1.314 4.152-.027 9.721 1.581 10.846 2.017a2.905 2.905 0 0 0 3.343-.939c.587-.772.947-2.145.028-3.479Z"/><path fill="#798aca" d="M47.532 13.246h5.099v11.817h-2.735v-9.622h-2.364v-2.195Zm12.223 12.02c-.98 0-1.852-.242-2.617-.726-.765-.484-1.365-1.185-1.798-2.102-.433-.917-.65-2.011-.65-3.283 0-1.272.217-2.367.65-3.284.433-.917 1.033-1.617 1.798-2.101.765-.484 1.637-.726 2.617-.726.979 0 1.85.242 2.616.726.765.484 1.365 1.184 1.798 2.101.433.917.65 2.012.65 3.284 0 1.271-.217 2.366-.65 3.283-.433.917-1.032 1.618-1.798 2.102-.765.484-1.637.726-2.617.726Zm0-2.313c.72 0 1.285-.31 1.696-.928.41-.62.616-1.576.616-2.87 0-1.295-.205-2.251-.616-2.87-.41-.62-.976-.929-1.697-.929-.709 0-1.268.31-1.68.929-.41.619-.615 1.575-.615 2.87 0 1.294.205 2.25.616 2.87.41.619.97.928 1.68.928Zm11.462 2.313c-.979 0-1.851-.242-2.617-.726-.765-.484-1.364-1.185-1.797-2.102-.434-.917-.65-2.011-.65-3.283 0-1.272.216-2.367.65-3.284.433-.917 1.032-1.617 1.797-2.101.766-.484 1.638-.726 2.617-.726.98 0 1.851.242 2.617.726.765.484 1.364 1.184 1.798 2.101.433.917.65 2.012.65 3.284 0 1.271-.217 2.366-.65 3.283-.434.917-1.033 1.618-1.798 2.102-.766.484-1.638.726-2.617.726Zm0-2.313c.72 0 1.286-.31 1.697-.928.41-.62.616-1.576.616-2.87 0-1.295-.206-2.251-.616-2.87-.411-.62-.977-.929-1.697-.929-.709 0-1.269.31-1.68.929-.41.619-.616 1.575-.616 2.87 0 1.294.206 2.25.616 2.87.411.619.971.928 1.68.928ZM49.236 39.599V29.332h4.782c1.192 0 2.121.23 2.786.69.665.46.997 1.114.997 1.965 0 .84-.312 1.496-.938 1.965-.626.46-1.457.69-2.493.69l.278-.617c1.154 0 2.049.23 2.684.69.636.46.953 1.124.953 1.994 0 .9-.342 1.609-1.026 2.127-.675.508-1.662.763-2.963.763h-5.06Zm2.362-1.76h2.61c.548 0 .963-.108 1.247-.323.283-.215.425-.547.425-.997 0-.43-.142-.748-.425-.953-.284-.216-.7-.323-1.247-.323h-2.61v2.596Zm0-4.253h2.214c.519 0 .91-.103 1.174-.308.264-.216.396-.528.396-.94 0-.41-.133-.718-.396-.923-.264-.215-.655-.323-1.174-.323h-2.214v2.494Zm12.086 6.13c-.84 0-1.588-.176-2.244-.528a4.11 4.11 0 0 1-1.54-1.437c-.371-.616-.557-1.315-.557-2.097 0-.793.186-1.492.557-2.098a3.961 3.961 0 0 1 1.54-1.437c.656-.352 1.404-.528 2.244-.528.831 0 1.575.176 2.23.528a3.864 3.864 0 0 1 1.54 1.422c.371.607.557 1.31.557 2.113 0 .782-.186 1.48-.557 2.097a3.97 3.97 0 0 1-1.54 1.437c-.656.352-1.399.528-2.23.528Zm0-1.877c.382 0 .724-.088 1.027-.264.303-.176.543-.426.719-.748.176-.333.264-.724.264-1.173 0-.46-.088-.851-.264-1.174a1.892 1.892 0 0 0-.72-.748 2.007 2.007 0 0 0-1.026-.264c-.381 0-.723.088-1.026.264a1.995 1.995 0 0 0-.734.748c-.176.323-.264.714-.264 1.174 0 .45.088.84.264 1.173.186.322.43.572.734.748.303.176.645.264 1.026.264Zm5.901 1.76v-7.89h7.846v7.89h-2.288v-6.527l.513.514h-4.312l.514-.514V39.6h-2.273Zm14.689.117c-.665 0-1.247-.147-1.746-.44-.498-.293-.89-.738-1.173-1.335-.274-.606-.41-1.369-.41-2.288 0-.928.131-1.691.395-2.288.264-.596.646-1.04 1.144-1.334.499-.293 1.096-.44 1.79-.44.743 0 1.408.171 1.994.513a3.61 3.61 0 0 1 1.408 1.408c.352.606.528 1.32.528 2.142 0 .83-.176 1.55-.528 2.155a3.61 3.61 0 0 1-1.408 1.408c-.586.333-1.251.499-1.994.499Zm-4.664 1.68v-9.688h2.185v1.614l-.044 2.346.147 2.332v3.396H79.61Zm4.268-3.557c.381 0 .718-.088 1.012-.264.303-.176.542-.426.718-.748.186-.333.279-.724.279-1.173 0-.46-.093-.851-.279-1.174a1.892 1.892 0 0 0-.718-.748 1.928 1.928 0 0 0-1.012-.264c-.382 0-.724.088-1.027.264a1.891 1.891 0 0 0-.719.748c-.176.323-.264.714-.264 1.174 0 .45.088.84.264 1.173.176.322.416.572.719.748.303.176.645.264 1.027.264Zm9.626 1.877c-.841 0-1.59-.176-2.244-.528a4.11 4.11 0 0 1-1.54-1.437c-.372-.616-.558-1.315-.558-2.097 0-.793.186-1.492.558-2.098a3.961 3.961 0 0 1 1.54-1.437c.655-.352 1.403-.528 2.244-.528.83 0 1.574.176 2.229.528a3.864 3.864 0 0 1 1.54 1.422c.371.607.557 1.31.557 2.113 0 .782-.186 1.48-.557 2.097a3.97 3.97 0 0 1-1.54 1.437c-.655.352-1.398.528-2.23.528Zm0-1.877c.38 0 .723-.088 1.026-.264.303-.176.543-.426.719-.748.176-.333.264-.724.264-1.173 0-.46-.088-.851-.264-1.174a1.892 1.892 0 0 0-.719-.748 2.007 2.007 0 0 0-1.026-.264c-.382 0-.724.088-1.027.264a1.995 1.995 0 0 0-.733.748c-.176.323-.264.714-.264 1.174 0 .45.088.84.264 1.173.185.322.43.572.733.748.303.176.645.264 1.027.264Zm9.654 1.877c-.85 0-1.608-.171-2.273-.513a4.015 4.015 0 0 1-1.57-1.452c-.37-.616-.556-1.315-.556-2.097 0-.793.185-1.492.557-2.098a3.91 3.91 0 0 1 1.569-1.437c.665-.352 1.423-.528 2.273-.528.831 0 1.555.176 2.171.528a3.135 3.135 0 0 1 1.364 1.481l-1.775.953c-.205-.371-.464-.645-.777-.82a1.951 1.951 0 0 0-.997-.265c-.391 0-.743.088-1.056.264a1.957 1.957 0 0 0-.748.748c-.176.323-.264.714-.264 1.174 0 .459.088.85.264 1.173.185.322.435.572.748.748.313.176.665.264 1.056.264.361 0 .694-.083.997-.25.313-.176.572-.454.777-.836l1.775.968a3.226 3.226 0 0 1-1.364 1.482c-.616.342-1.34.513-2.171.513Zm8.521 0c-.841 0-1.589-.176-2.244-.528a4.11 4.11 0 0 1-1.54-1.437c-.372-.616-.557-1.315-.557-2.097 0-.793.185-1.492.557-2.098a3.96 3.96 0 0 1 1.54-1.437c.655-.352 1.403-.528 2.244-.528.831 0 1.574.176 2.229.528a3.868 3.868 0 0 1 1.54 1.422c.372.607.557 1.31.557 2.113 0 .782-.185 1.48-.557 2.097a3.974 3.974 0 0 1-1.54 1.437c-.655.352-1.398.528-2.229.528Zm0-1.877c.381 0 .723-.088 1.026-.264.303-.176.543-.426.719-.748.176-.333.264-.724.264-1.173 0-.46-.088-.851-.264-1.174a1.893 1.893 0 0 0-.719-.748 2.005 2.005 0 0 0-1.026-.264c-.382 0-.724.088-1.027.264a1.997 1.997 0 0 0-.733.748c-.176.323-.264.714-.264 1.174 0 .45.088.84.264 1.173.186.322.43.572.733.748.303.176.645.264 1.027.264Zm5.9 1.76v-7.89h4.033c.988 0 1.76.18 2.317.542.558.352.836.85.836 1.496 0 .645-.264 1.154-.792 1.525-.518.362-1.207.543-2.068.543l.235-.528c.958 0 1.672.176 2.141.528.479.352.719.865.719 1.54 0 .694-.264 1.242-.792 1.642-.528.401-1.335.602-2.42.602h-4.209Zm2.097-1.555h1.921c.421 0 .734-.068.939-.205.215-.147.323-.367.323-.66 0-.303-.098-.523-.294-.66-.195-.147-.503-.22-.924-.22h-1.965v1.745Zm0-3.094h1.731c.401 0 .699-.074.894-.22.206-.147.308-.357.308-.631 0-.284-.102-.494-.308-.63-.195-.138-.493-.206-.894-.206h-1.731v1.687Z"/></svg>