<svg xmlns="http://www.w3.org/2000/svg" width="95" height="44" fill="none"><path fill="url(#a)" d="M4.41 22V2.8l2.1 2.1H.21V1h9.06v21H4.41Z"/><path fill="url(#b)" d="M21.918 22.36c-1.72 0-3.26-.42-4.62-1.26-1.36-.86-2.43-2.1-3.21-3.72-.78-1.62-1.17-3.58-1.17-5.88s.39-4.26 1.17-5.88c.78-1.62 1.85-2.85 3.21-3.69 1.36-.86 2.9-1.29 4.62-1.29 1.74 0 3.28.43 4.62 1.29 1.36.84 2.43 2.07 3.21 3.69.78 1.62 1.17 3.58 1.17 5.88s-.39 4.26-1.17 5.88c-.78 1.62-1.85 2.86-3.21 3.72-1.34.84-2.88 1.26-4.62 1.26Zm0-4.11c.82 0 1.53-.23 2.13-.69.62-.46 1.1-1.19 1.44-2.19.36-1 .54-2.29.54-3.87s-.18-2.87-.54-3.87c-.34-1-.82-1.73-1.44-2.19-.6-.46-1.31-.69-2.13-.69-.8 0-1.51.23-2.13.69-.6.46-1.08 1.19-1.44 2.19-.34 1-.51 2.29-.51 3.87s.17 2.87.51 3.87c.36 1 .84 1.73 1.44 2.19.62.46 1.33.69 2.13.69Z"/><path fill="url(#c)" d="M42.28 22.36c-1.72 0-3.26-.42-4.62-1.26-1.36-.86-2.43-2.1-3.21-3.72-.78-1.62-1.17-3.58-1.17-5.88s.39-4.26 1.17-5.88c.78-1.62 1.85-2.85 3.21-3.69 1.36-.86 2.9-1.29 4.62-1.29 1.74 0 3.28.43 4.62 1.29 1.36.84 2.43 2.07 3.21 3.69.78 1.62 1.17 3.58 1.17 5.88s-.39 4.26-1.17 5.88c-.78 1.62-1.85 2.86-3.21 3.72-1.34.84-2.88 1.26-4.62 1.26Zm0-4.11c.82 0 1.53-.23 2.13-.69.62-.46 1.1-1.19 1.44-2.19.36-1 .54-2.29.54-3.87s-.18-2.87-.54-3.87c-.34-1-.82-1.73-1.44-2.19-.6-.46-1.31-.69-2.13-.69-.8 0-1.51.23-2.13.69-.6.46-1.08 1.19-1.44 2.19-.34 1-.51 2.29-.51 3.87s.17 2.87.51 3.87c.36 1 .84 1.73 1.44 2.19.62.46 1.33.69 2.13.69Z"/><path fill="url(#d)" d="M1.919 40v-9.975h4.408c1.127 0 2.014.215 2.66.646.659.43.988 1.064.988 1.9 0 .81-.31 1.438-.931 1.88-.62.432-1.438.647-2.451.647l.266-.4c1.19 0 2.065.223 2.622.666.557.443.836 1.083.836 1.919 0 .861-.317 1.533-.95 2.014-.62.469-1.59.703-2.907.703H1.919Zm1.311-1.064h3.173c.849 0 1.488-.133 1.919-.4.443-.278.665-.721.665-1.33 0-.607-.196-1.05-.589-1.33-.393-.278-1.013-.417-1.862-.417H3.23v3.477Zm0-4.484h3.002c.773 0 1.362-.146 1.767-.437.418-.291.627-.716.627-1.273 0-.557-.209-.975-.627-1.254-.405-.279-.994-.418-1.767-.418H3.23v3.382Z"/><path fill="url(#e)" d="M17.582 40.095c-.962 0-1.83-.215-2.603-.646a4.934 4.934 0 0 1-1.804-1.805c-.444-.773-.666-1.653-.666-2.641 0-1 .222-1.881.665-2.641a4.791 4.791 0 0 1 1.806-1.786c.76-.43 1.627-.646 2.602-.646.988 0 1.863.215 2.622.646a4.617 4.617 0 0 1 1.805 1.786c.444.76.665 1.64.665 2.64 0 .989-.221 1.87-.665 2.642a4.75 4.75 0 0 1-1.805 1.805c-.772.43-1.646.646-2.622.646Zm0-1.197c.723 0 1.362-.158 1.92-.475.557-.33.994-.785 1.31-1.368.33-.595.494-1.28.494-2.052 0-.785-.164-1.47-.494-2.052a3.36 3.36 0 0 0-1.31-1.35c-.558-.328-1.191-.493-1.9-.493-.71 0-1.343.165-1.9.494-.558.317-1.001.766-1.33 1.349-.33.583-.495 1.267-.495 2.052 0 .773.165 1.457.494 2.052.33.583.773 1.039 1.33 1.368.558.317 1.185.475 1.881.475Z"/><path fill="url(#f)" d="M25.558 40v-9.975h8.968V40h-1.35v-9.158l.343.36h-6.954l.342-.36V40h-1.35Z"/><path fill="url(#g)" d="M43.51 40.095c-.862 0-1.641-.196-2.338-.59-.696-.404-1.254-.98-1.672-1.728-.405-.76-.608-1.685-.608-2.774 0-1.09.203-2.008.608-2.755.406-.76.957-1.336 1.653-1.73.697-.392 1.482-.588 2.356-.588.95 0 1.799.215 2.546.646a4.487 4.487 0 0 1 1.786 1.786c.431.76.646 1.64.646 2.64 0 1.014-.215 1.9-.646 2.66a4.654 4.654 0 0 1-1.786 1.787c-.747.43-1.596.646-2.546.646Zm-5.15 3.59v-13.66h1.292v3.002l-.133 1.995.19 2.014v6.65H38.36Zm5.054-4.787c.71 0 1.343-.158 1.9-.475.558-.33 1.001-.785 1.33-1.368.33-.595.494-1.28.494-2.052 0-.773-.164-1.45-.494-2.033a3.632 3.632 0 0 0-1.33-1.368c-.557-.33-1.19-.494-1.9-.494-.709 0-1.349.165-1.919.494-.557.33-1 .785-1.33 1.368-.316.583-.475 1.26-.475 2.033 0 .773.159 1.457.475 2.052a3.63 3.63 0 0 0 1.33 1.368c.57.317 1.21.475 1.92.475Z"/><path fill="url(#h)" d="M55.49 40.095c-.963 0-1.83-.215-2.603-.646a4.934 4.934 0 0 1-1.805-1.805c-.444-.773-.665-1.653-.665-2.641 0-1 .221-1.881.665-2.641a4.79 4.79 0 0 1 1.805-1.786c.76-.43 1.627-.646 2.603-.646.988 0 1.862.215 2.622.646a4.618 4.618 0 0 1 1.805 1.786c.443.76.665 1.64.665 2.64 0 .989-.222 1.87-.665 2.642a4.751 4.751 0 0 1-1.805 1.805c-.773.43-1.647.646-2.622.646Zm0-1.197c.722 0 1.361-.158 1.919-.475.557-.33.994-.785 1.31-1.368.33-.595.495-1.28.495-2.052 0-.785-.165-1.47-.494-2.052a3.362 3.362 0 0 0-1.311-1.35c-.558-.328-1.19-.493-1.9-.493s-1.343.165-1.9.494a3.49 3.49 0 0 0-1.33 1.349c-.33.583-.494 1.267-.494 2.052 0 .773.164 1.457.494 2.052a3.63 3.63 0 0 0 1.33 1.368c.557.317 1.184.475 1.88.475Z"/><path fill="url(#i)" d="M67.645 40.095c-.988 0-1.875-.215-2.66-.646a4.89 4.89 0 0 1-1.824-1.805c-.444-.773-.665-1.653-.665-2.641 0-1 .221-1.881.665-2.641a4.751 4.751 0 0 1 1.824-1.786c.785-.43 1.672-.646 2.66-.646.849 0 1.615.165 2.299.494.684.33 1.222.823 1.615 1.482l-1.007.684a3.166 3.166 0 0 0-1.273-1.121 3.803 3.803 0 0 0-1.653-.361c-.71 0-1.35.165-1.92.494-.57.317-1.019.766-1.348 1.349-.33.583-.494 1.267-.494 2.052 0 .785.164 1.47.494 2.052.33.583.779 1.039 1.349 1.368.57.317 1.21.475 1.919.475.595 0 1.146-.12 1.653-.361.507-.24.93-.608 1.273-1.102l1.007.684a3.884 3.884 0 0 1-1.615 1.482c-.684.33-1.45.494-2.3.494Z"/><path fill="url(#j)" d="M78.108 40.095c-.963 0-1.83-.215-2.603-.646a4.934 4.934 0 0 1-1.805-1.805c-.443-.773-.665-1.653-.665-2.641 0-1 .222-1.881.665-2.641a4.79 4.79 0 0 1 1.805-1.786c.76-.43 1.628-.646 2.603-.646.988 0 1.862.215 2.622.646a4.617 4.617 0 0 1 1.805 1.786c.443.76.665 1.64.665 2.64 0 .989-.222 1.87-.665 2.642a4.75 4.75 0 0 1-1.805 1.805c-.773.43-1.647.646-2.622.646Zm0-1.197c.722 0 1.362-.158 1.919-.475.557-.33.994-.785 1.31-1.368.33-.595.495-1.28.495-2.052 0-.785-.165-1.47-.494-2.052a3.362 3.362 0 0 0-1.311-1.35c-.557-.328-1.19-.493-1.9-.493s-1.343.165-1.9.494c-.557.317-1 .766-1.33 1.349-.33.583-.494 1.267-.494 2.052 0 .773.165 1.457.494 2.052.33.583.773 1.039 1.33 1.368.557.317 1.184.475 1.88.475Z"/><path fill="url(#k)" d="M86.083 40v-9.975h4.408c1.127 0 2.014.215 2.66.646.659.43.988 1.064.988 1.9 0 .81-.31 1.438-.931 1.88-.62.432-1.438.647-2.451.647l.266-.4c1.19 0 2.065.223 2.622.666.557.443.836 1.083.836 1.919 0 .861-.317 1.533-.95 2.014-.62.469-1.59.703-2.907.703h-4.541Zm1.311-1.064h3.173c.849 0 1.488-.133 1.919-.4.443-.278.665-.721.665-1.33 0-.607-.196-1.05-.589-1.33-.393-.278-1.013-.417-1.862-.417h-3.306v3.477Zm0-4.484h3.002c.773 0 1.362-.146 1.767-.437.418-.291.627-.716.627-1.273 0-.557-.209-.975-.627-1.254-.405-.279-.994-.418-1.767-.418h-3.002v3.382Z"/><path fill="#6795F8" fill-rule="evenodd" d="M67.5 1.5A2.5 2.5 0 0 0 65 4v12a2.5 2.5 0 0 0 2.5 2.5H72a.5.5 0 0 1 .354.146L78 24.293l5.646-5.647A.5.5 0 0 1 84 18.5h4.5A2.5 2.5 0 0 0 91 16V4a2.5 2.5 0 0 0-2.5-2.5h-21Zm-2.475.025A3.5 3.5 0 0 1 67.5.5h21A3.5 3.5 0 0 1 92 4v12a3.5 3.5 0 0 1-3.5 3.5h-4.293l-5.853 5.854a.5.5 0 0 1-.708 0L71.793 19.5H67.5A3.5 3.5 0 0 1 64 16V4a3.5 3.5 0 0 1 1.025-2.475ZM70 7a.5.5 0 0 1 .5-.5h15a.5.5 0 0 1 0 1h-15A.5.5 0 0 1 70 7Zm0 6a.5.5 0 0 1 .5-.5h6a.5.5 0 0 1 0 1h-6a.5.5 0 0 1-.5-.5Z" clip-rule="evenodd"/><defs><linearGradient id="a" x1="0" x2="93.898" y1="30.182" y2="30.182" gradientUnits="userSpaceOnUse"><stop stop-color="#6B53FF"/><stop offset="1" stop-color="#65A2F5"/></linearGradient><linearGradient id="b" x1="0" x2="93.898" y1="30.182" y2="30.182" gradientUnits="userSpaceOnUse"><stop stop-color="#6B53FF"/><stop offset="1" stop-color="#65A2F5"/></linearGradient><linearGradient id="c" x1="0" x2="93.898" y1="30.182" y2="30.182" gradientUnits="userSpaceOnUse"><stop stop-color="#6B53FF"/><stop offset="1" stop-color="#65A2F5"/></linearGradient><linearGradient id="d" x1="0" x2="93.898" y1="30.182" y2="30.182" gradientUnits="userSpaceOnUse"><stop stop-color="#6B53FF"/><stop offset="1" stop-color="#65A2F5"/></linearGradient><linearGradient id="e" x1="0" x2="93.898" y1="30.182" y2="30.182" gradientUnits="userSpaceOnUse"><stop stop-color="#6B53FF"/><stop offset="1" stop-color="#65A2F5"/></linearGradient><linearGradient id="f" x1="0" x2="93.898" y1="30.182" y2="30.182" gradientUnits="userSpaceOnUse"><stop stop-color="#6B53FF"/><stop offset="1" stop-color="#65A2F5"/></linearGradient><linearGradient id="g" x1="0" x2="93.898" y1="30.182" y2="30.182" gradientUnits="userSpaceOnUse"><stop stop-color="#6B53FF"/><stop offset="1" stop-color="#65A2F5"/></linearGradient><linearGradient id="h" x1="0" x2="93.898" y1="30.182" y2="30.182" gradientUnits="userSpaceOnUse"><stop stop-color="#6B53FF"/><stop offset="1" stop-color="#65A2F5"/></linearGradient><linearGradient id="i" x1="0" x2="93.898" y1="30.182" y2="30.182" gradientUnits="userSpaceOnUse"><stop stop-color="#6B53FF"/><stop offset="1" stop-color="#65A2F5"/></linearGradient><linearGradient id="j" x1="0" x2="93.898" y1="30.182" y2="30.182" gradientUnits="userSpaceOnUse"><stop stop-color="#6B53FF"/><stop offset="1" stop-color="#65A2F5"/></linearGradient><linearGradient id="k" x1="0" x2="93.898" y1="30.182" y2="30.182" gradientUnits="userSpaceOnUse"><stop stop-color="#6B53FF"/><stop offset="1" stop-color="#65A2F5"/></linearGradient></defs></svg>