<svg xmlns="http://www.w3.org/2000/svg" width="81" height="41" fill="none"><path fill="url(#a)" d="M3.822 23V6.36l1.82 1.82H.182V4.8h7.852V23H3.822Z"/><path fill="url(#b)" d="M18.996 23.312c-1.49 0-2.826-.364-4.004-1.092-1.179-.745-2.106-1.82-2.782-3.224-.676-1.404-1.014-3.103-1.014-5.096 0-1.993.338-3.692 1.014-5.096.676-1.404 1.603-2.47 2.782-3.198 1.178-.745 2.513-1.118 4.004-1.118 1.508 0 2.842.373 4.004 1.118 1.178.728 2.106 1.794 2.782 3.198.676 1.404 1.014 3.103 1.014 5.096 0 1.993-.338 3.692-1.014 5.096-.676 1.404-1.604 2.479-2.782 3.224-1.162.728-2.496 1.092-4.004 1.092Zm0-3.562c.71 0 1.326-.2 1.846-.598.537-.399.953-1.031 1.248-1.898.312-.867.468-1.985.468-3.354 0-1.37-.156-2.487-.468-3.354-.295-.867-.71-1.5-1.248-1.898-.52-.399-1.136-.598-1.846-.598-.694 0-1.309.2-1.846.598-.52.399-.936 1.031-1.248 1.898-.295.867-.442 1.985-.442 3.354 0 1.37.147 2.487.442 3.354.312.867.728 1.5 1.248 1.898a3.016 3.016 0 0 0 1.846.598Z"/><path fill="url(#c)" d="M36.642 23.312c-1.49 0-2.825-.364-4.004-1.092-1.178-.745-2.106-1.82-2.782-3.224-.676-1.404-1.014-3.103-1.014-5.096 0-1.993.338-3.692 1.014-5.096.676-1.404 1.604-2.47 2.782-3.198 1.179-.745 2.514-1.118 4.004-1.118 1.508 0 2.843.373 4.004 1.118 1.179.728 2.106 1.794 2.782 3.198.676 1.404 1.014 3.103 1.014 5.096 0 1.993-.338 3.692-1.014 5.096-.676 1.404-1.603 2.479-2.782 3.224-1.161.728-2.496 1.092-4.004 1.092Zm0-3.562c.71 0 1.326-.2 1.846-.598.538-.399.954-1.031 1.248-1.898.312-.867.468-1.985.468-3.354 0-1.37-.156-2.487-.468-3.354-.294-.867-.71-1.5-1.248-1.898-.52-.399-1.135-.598-1.846-.598-.693 0-1.308.2-1.846.598-.52.399-.936 1.031-1.248 1.898-.294.867-.442 1.985-.442 3.354 0 1.37.148 2.487.442 3.354.312.867.728 1.5 1.248 1.898a3.016 3.016 0 0 0 1.846.598Z"/><path fill="url(#d)" d="M1.616 37v-8.4h3.712c.95 0 1.696.181 2.24.544.555.363.832.896.832 1.6 0 .683-.261 1.21-.784 1.584-.523.363-1.21.544-2.064.544l.224-.336c1.003 0 1.739.187 2.208.56.47.373.704.912.704 1.616 0 .725-.267 1.29-.8 1.696-.523.395-1.339.592-2.448.592H1.616Zm1.104-.896h2.672c.715 0 1.253-.112 1.616-.336.373-.235.56-.608.56-1.12 0-.512-.165-.885-.496-1.12-.33-.235-.853-.352-1.568-.352H2.72v2.928Zm0-3.776h2.528c.65 0 1.147-.123 1.488-.368.352-.245.528-.603.528-1.072 0-.47-.176-.821-.528-1.056-.341-.235-.837-.352-1.488-.352H2.72v2.848Z"/><path fill="url(#e)" d="M14.806 37.08c-.81 0-1.54-.181-2.191-.544a4.154 4.154 0 0 1-1.52-1.52c-.374-.65-.56-1.392-.56-2.224 0-.843.186-1.584.56-2.224.373-.64.88-1.141 1.52-1.504s1.37-.544 2.191-.544c.833 0 1.569.181 2.209.544.65.363 1.157.864 1.52 1.504.373.64.56 1.381.56 2.224 0 .832-.187 1.573-.56 2.224a4 4 0 0 1-1.52 1.52c-.651.363-1.387.544-2.209.544Zm0-1.008c.609 0 1.147-.133 1.617-.4.469-.277.837-.661 1.104-1.152.277-.501.415-1.077.415-1.728 0-.661-.138-1.237-.416-1.728a2.832 2.832 0 0 0-1.104-1.136 3.085 3.085 0 0 0-1.6-.416c-.597 0-1.13.139-1.6.416a2.94 2.94 0 0 0-1.12 1.136c-.277.49-.415 1.067-.415 1.728 0 .65.138 1.227.415 1.728.278.49.651.875 1.12 1.152.47.267.998.4 1.585.4Z"/><path fill="url(#f)" d="M21.522 37v-8.4h7.552V37h-1.136v-7.712l.288.304H22.37l.288-.304V37h-1.136Z"/><path fill="url(#g)" d="M36.64 37.08a3.938 3.938 0 0 1-1.968-.496 3.775 3.775 0 0 1-1.408-1.456c-.342-.64-.512-1.419-.512-2.336 0-.917.17-1.69.512-2.32.341-.64.805-1.125 1.392-1.456.586-.33 1.248-.496 1.984-.496.8 0 1.514.181 2.144.544.64.352 1.141.853 1.504 1.504.362.64.544 1.381.544 2.224 0 .853-.182 1.6-.544 2.24a3.918 3.918 0 0 1-1.504 1.504c-.63.363-1.344.544-2.144.544Zm-4.336 3.024V28.6h1.088v2.528l-.112 1.68.16 1.696v5.6h-1.136Zm4.256-4.032c.597 0 1.13-.133 1.6-.4.469-.277.842-.661 1.12-1.152.277-.501.416-1.077.416-1.728 0-.65-.139-1.221-.416-1.712a3.059 3.059 0 0 0-1.12-1.152 3.085 3.085 0 0 0-1.6-.416c-.598 0-1.136.139-1.616.416a3.06 3.06 0 0 0-1.12 1.152c-.267.49-.4 1.061-.4 1.712 0 .65.133 1.227.4 1.728.277.49.65.875 1.12 1.152.48.267 1.018.4 1.616.4Z"/><path fill="url(#h)" d="M46.728 37.08c-.81 0-1.541-.181-2.192-.544a4.154 4.154 0 0 1-1.52-1.52c-.373-.65-.56-1.392-.56-2.224 0-.843.187-1.584.56-2.224.374-.64.88-1.141 1.52-1.504s1.371-.544 2.192-.544c.832 0 1.568.181 2.208.544.651.363 1.158.864 1.52 1.504.374.64.56 1.381.56 2.224 0 .832-.186 1.573-.56 2.224a4.001 4.001 0 0 1-1.52 1.52c-.65.363-1.386.544-2.208.544Zm0-1.008c.608 0 1.147-.133 1.616-.4.47-.277.838-.661 1.104-1.152.278-.501.416-1.077.416-1.728 0-.661-.138-1.237-.416-1.728a2.832 2.832 0 0 0-1.104-1.136 3.086 3.086 0 0 0-1.6-.416c-.597 0-1.13.139-1.6.416a2.94 2.94 0 0 0-1.12 1.136c-.277.49-.416 1.067-.416 1.728 0 .65.139 1.227.416 1.728.278.49.651.875 1.12 1.152.47.267.998.4 1.584.4Z"/><path fill="url(#i)" d="M56.964 37.08c-.832 0-1.578-.181-2.24-.544a4.118 4.118 0 0 1-1.536-1.52c-.373-.65-.56-1.392-.56-2.224 0-.843.187-1.584.56-2.224a4.001 4.001 0 0 1 1.536-1.504c.662-.363 1.408-.544 2.24-.544.715 0 1.36.139 1.936.416.576.277 1.03.693 1.36 1.248l-.848.576a2.667 2.667 0 0 0-1.072-.944 3.204 3.204 0 0 0-1.392-.304c-.597 0-1.136.139-1.616.416-.48.267-.858.645-1.136 1.136-.277.49-.416 1.067-.416 1.728s.139 1.237.416 1.728c.278.49.656.875 1.136 1.152.48.267 1.019.4 1.616.4.502 0 .966-.101 1.392-.304a2.705 2.705 0 0 0 1.072-.928l.848.576a3.27 3.27 0 0 1-1.36 1.248c-.576.277-1.221.416-1.936.416Z"/><path fill="url(#j)" d="M65.775 37.08c-.81 0-1.541-.181-2.192-.544a4.154 4.154 0 0 1-1.52-1.52c-.373-.65-.56-1.392-.56-2.224 0-.843.187-1.584.56-2.224.374-.64.88-1.141 1.52-1.504s1.37-.544 2.192-.544c.832 0 1.568.181 2.208.544.65.363 1.158.864 1.52 1.504.374.64.56 1.381.56 2.224 0 .832-.186 1.573-.56 2.224a4 4 0 0 1-1.52 1.52c-.65.363-1.386.544-2.208.544Zm0-1.008c.608 0 1.147-.133 1.616-.4.47-.277.838-.661 1.104-1.152.278-.501.416-1.077.416-1.728 0-.661-.138-1.237-.416-1.728a2.832 2.832 0 0 0-1.104-1.136 3.086 3.086 0 0 0-1.6-.416c-.597 0-1.13.139-1.6.416a2.94 2.94 0 0 0-1.12 1.136c-.277.49-.416 1.067-.416 1.728 0 .65.139 1.227.416 1.728.278.49.65.875 1.12 1.152.47.267.998.4 1.584.4Z"/><path fill="url(#k)" d="M72.491 37v-8.4h3.712c.95 0 1.696.181 2.24.544.555.363.832.896.832 1.6 0 .683-.261 1.21-.784 1.584-.522.363-1.21.544-2.064.544l.224-.336c1.003 0 1.739.187 2.208.56.47.373.704.912.704 1.616 0 .725-.267 1.29-.8 1.696-.523.395-1.339.592-2.448.592h-3.824Zm1.104-.896h2.672c.715 0 1.254-.112 1.616-.336.374-.235.56-.608.56-1.12 0-.512-.165-.885-.496-1.12-.33-.235-.853-.352-1.568-.352h-2.784v2.928Zm0-3.776h2.528c.65 0 1.147-.123 1.488-.368.352-.245.528-.603.528-1.072 0-.47-.176-.821-.528-1.056-.341-.235-.837-.352-1.488-.352h-2.528v2.848Z"/><path fill="#6795F8" fill-rule="evenodd" d="M56.458 5.667a2.083 2.083 0 0 0-2.083 2.083v10.333a2.084 2.084 0 0 0 2.083 2.084h3.875a.5.5 0 0 1 .354.146l4.813 4.813 4.813-4.813a.5.5 0 0 1 .354-.146h3.875a2.083 2.083 0 0 0 2.083-2.084V7.75a2.083 2.083 0 0 0-2.083-2.083H56.458Zm-2.18-.097a3.083 3.083 0 0 1 2.18-.903h18.084a3.083 3.083 0 0 1 3.083 3.083v10.333a3.084 3.084 0 0 1-3.083 3.084h-3.668l-5.02 5.02a.5.5 0 0 1-.708 0l-5.02-5.02h-3.668a3.083 3.083 0 0 1-3.083-3.084V7.75c0-.818.325-1.602.903-2.18Zm4.264 4.763a.5.5 0 0 1 .5-.5h12.916a.5.5 0 1 1 0 1H59.042a.5.5 0 0 1-.5-.5Zm0 5.167a.5.5 0 0 1 .5-.5h5.166a.5.5 0 1 1 0 1h-5.166a.5.5 0 0 1-.5-.5Z" clip-rule="evenodd"/><defs><linearGradient id="a" x1="0" x2="79.226" y1="29.303" y2="29.303" gradientUnits="userSpaceOnUse"><stop stop-color="#6B53FF"/><stop offset="1" stop-color="#65A2F5"/></linearGradient><linearGradient id="b" x1="0" x2="79.226" y1="29.303" y2="29.303" gradientUnits="userSpaceOnUse"><stop stop-color="#6B53FF"/><stop offset="1" stop-color="#65A2F5"/></linearGradient><linearGradient id="c" x1="0" x2="79.226" y1="29.303" y2="29.303" gradientUnits="userSpaceOnUse"><stop stop-color="#6B53FF"/><stop offset="1" stop-color="#65A2F5"/></linearGradient><linearGradient id="d" x1="0" x2="79.226" y1="29.303" y2="29.303" gradientUnits="userSpaceOnUse"><stop stop-color="#6B53FF"/><stop offset="1" stop-color="#65A2F5"/></linearGradient><linearGradient id="e" x1="0" x2="79.226" y1="29.303" y2="29.303" gradientUnits="userSpaceOnUse"><stop stop-color="#6B53FF"/><stop offset="1" stop-color="#65A2F5"/></linearGradient><linearGradient id="f" x1="0" x2="79.226" y1="29.303" y2="29.303" gradientUnits="userSpaceOnUse"><stop stop-color="#6B53FF"/><stop offset="1" stop-color="#65A2F5"/></linearGradient><linearGradient id="g" x1="0" x2="79.226" y1="29.303" y2="29.303" gradientUnits="userSpaceOnUse"><stop stop-color="#6B53FF"/><stop offset="1" stop-color="#65A2F5"/></linearGradient><linearGradient id="h" x1="0" x2="79.226" y1="29.303" y2="29.303" gradientUnits="userSpaceOnUse"><stop stop-color="#6B53FF"/><stop offset="1" stop-color="#65A2F5"/></linearGradient><linearGradient id="i" x1="0" x2="79.226" y1="29.303" y2="29.303" gradientUnits="userSpaceOnUse"><stop stop-color="#6B53FF"/><stop offset="1" stop-color="#65A2F5"/></linearGradient><linearGradient id="j" x1="0" x2="79.226" y1="29.303" y2="29.303" gradientUnits="userSpaceOnUse"><stop stop-color="#6B53FF"/><stop offset="1" stop-color="#65A2F5"/></linearGradient><linearGradient id="k" x1="0" x2="79.226" y1="29.303" y2="29.303" gradientUnits="userSpaceOnUse"><stop stop-color="#6B53FF"/><stop offset="1" stop-color="#65A2F5"/></linearGradient></defs></svg>