<svg xmlns="http://www.w3.org/2000/svg" width="192" height="192" fill="none"><g opacity=".92"><rect width="192" height="192" fill="url(#a)" rx="30"/><path fill="#fff" d="M59.613 99.39c0 4.683 3.805 8.496 8.481 8.496 4.679 0 8.485-3.813 8.485-8.496 0-4.685-3.806-8.494-8.484-8.494-4.677 0-8.482 3.81-8.482 8.494ZM85.65 99.39c0 4.683 3.806 8.496 8.484 8.496 4.677 0 8.48-3.813 8.48-8.496 0-4.685-3.803-8.494-8.48-8.494-4.678 0-8.484 3.81-8.484 8.494ZM111.685 99.39c0 4.683 3.805 8.496 8.483 8.496 4.676 0 8.48-3.813 8.48-8.496 0-4.685-3.804-8.494-8.48-8.494-4.678 0-8.483 3.81-8.483 8.494Z"/><path fill="#fff" d="M166.588 154.263a39.187 39.187 0 0 0-.589-.815c-1.733-2.343-7.007-9.472-8.07-19.058-.443-3.99-4.034-6.866-8.019-6.424-3.985.444-6.858 4.039-6.417 8.029.428 3.836 1.34 7.639 2.733 11.395-5.095-.948-10.61-1.641-15.595-1.608-8.468.062-14.744 2.206-20.282 4.101-5.474 1.872-10.206 3.489-17.15 3.489-24.956 0-42.056-16.337-49.733-31.623-11.313-22.518-4.36-42.97 3.468-56.161 9.708-16.374 27.868-26.954 46.265-26.954 6.285 0 22.367 1.307 35.963 13.423a7.256 7.256 0 0 0 10.252-.6c2.665-3 2.398-7.596-.597-10.263-17.326-15.439-37.674-17.104-45.618-17.104-11.765 0-23.52 3.262-33.99 9.436-10.214 6.022-18.778 14.54-24.762 24.635-6.357 10.718-10.11 21.805-11.151 32.95-1.193 12.782 1.227 25.286 7.195 37.169 5.57 11.092 13.9 20.645 24.084 27.627 11.453 7.852 24.81 12.004 38.622 12.004 9.354 0 15.988-2.268 21.842-4.267 5.142-1.759 9.583-3.277 15.692-3.32 10.473-.068 24.518 3.994 27.354 5.096 3.011 1.168 6.477.192 8.431-2.371 1.481-1.951 2.391-5.418.072-8.786Z"/></g><defs><linearGradient id="a" x1="0" x2="192" y1="0" y2="192" gradientUnits="userSpaceOnUse"><stop stop-color="#ACA5D5"/><stop offset=".234" stop-color="#918CB8"/><stop offset=".479" stop-color="#736F97"/><stop offset=".724" stop-color="#525070"/><stop offset="1" stop-color="#323147"/></linearGradient></defs></svg>